<svg xmlns="http://www.w3.org/2000/svg" xmlns:xlink="http://www.w3.org/1999/xlink" xmlns:s="https://github.com/nturley/netlistsvg" width="1259" height="932.5">
  <style>svg {
    stroke:#000;
    fill:none;
  }
  text {
    fill:#000;
    stroke:none;
    font-size:10px;
    font-weight: bold;
    font-family: "Courier New", monospace;
  }
  .nodelabel {
    text-anchor: middle;
  }
  .inputPortLabel {
    text-anchor: end;
  }
  .splitjoinBody {
    fill:#000;
  }</style>
  <g s:type="and" transform="translate(752,94.5)" s:width="30" s:height="25" id="cell_$and$OpenLane/src/femto.v:105$5">
    <s:alias val="$and"/>
    <s:alias val="$logic_and"/>
    <s:alias val="$_AND_"/>
    <path d="M0,0 L0,25 L15,25 A15 12.5 0 0 0 15,0 Z" class="cell_$and$OpenLane/src/femto.v:105$5"/>
    <g s:x="0" s:y="5" s:pid="A"/>
    <g s:x="0" s:y="20" s:pid="B"/>
    <g s:x="30" s:y="12.5" s:pid="Y"/>
  </g>
  <g s:type="and" transform="translate(752,252.5)" s:width="30" s:height="25" id="cell_$and$OpenLane/src/femto.v:85$3">
    <s:alias val="$and"/>
    <s:alias val="$logic_and"/>
    <s:alias val="$_AND_"/>
    <path d="M0,0 L0,25 L15,25 A15 12.5 0 0 0 15,0 Z" class="cell_$and$OpenLane/src/femto.v:85$3"/>
    <g s:x="0" s:y="5" s:pid="A"/>
    <g s:x="0" s:y="20" s:pid="B"/>
    <g s:x="30" s:y="12.5" s:pid="Y"/>
  </g>
  <g s:type="and" transform="translate(752,453)" s:width="30" s:height="25" id="cell_$and$OpenLane/src/femto.v:86$4">
    <s:alias val="$and"/>
    <s:alias val="$logic_and"/>
    <s:alias val="$_AND_"/>
    <path d="M0,0 L0,25 L15,25 A15 12.5 0 0 0 15,0 Z" class="cell_$and$OpenLane/src/femto.v:86$4"/>
    <g s:x="0" s:y="5" s:pid="A"/>
    <g s:x="0" s:y="20" s:pid="B"/>
    <g s:x="30" s:y="12.5" s:pid="Y"/>
  </g>
  <g s:type="not" transform="translate(759,663.5)" s:width="30" s:height="20" id="cell_$logic_not$OpenLane/src/femto.v:132$6">
    <s:alias val="$_NOT_"/>
    <s:alias val="$not"/>
    <s:alias val="$logic_not"/>
    <path d="M0,0 L0,20 L20,10 Z" class="cell_$logic_not$OpenLane/src/femto.v:132$6"/>
    <circle cx="23" cy="10" r="3" class="cell_$logic_not$OpenLane/src/femto.v:132$6"/>
    <g s:x="0" s:y="10" s:pid="A"/>
    <g s:x="25" s:y="10" s:pid="Y"/>
  </g>
  <g s:type="or" transform="translate(1165,218.5)" s:width="30" s:height="25" id="cell_$or$OpenLane/src/femto.v:56$1">
    <s:alias val="$or"/>
    <s:alias val="$logic_or"/>
    <s:alias val="$_OR_"/>
    <path d="M0,25 L0,25 L15,25 A15 12.5 0 0 0 15,0 L0,0" class="cell_$or$OpenLane/src/femto.v:56$1"/>
    <path d="M0,0 A30 25 0 0 1 0,25" class="cell_$or$OpenLane/src/femto.v:56$1"/>
    <g s:x="3" s:y="5" s:pid="A"/>
    <g s:x="3" s:y="20" s:pid="B"/>
    <g s:x="30" s:y="12.5" s:pid="Y"/>
  </g>
  <g s:type="mux" transform="translate(1165,599)" s:width="20" s:height="40" id="cell_$procmux$238">
    <s:alias val="$pmux"/>
    <s:alias val="$mux"/>
    <s:alias val="$_MUX_"/>
    <path d="M0,0 L20,10 L20,30 L0,40 Z" class="cell_$procmux$238"/>
    <g s:x="0" s:y="10" s:pid="A"/>
    <g s:x="0" s:y="30" s:pid="B"/>
    <g s:x="10" s:y="35" s:pid="S"/>
    <g s:x="20" s:y="20" s:pid="Y"/>
  </g>
  <g s:type="eq" transform="translate(922.3333333333334,764.5)" s:width="25" s:height="25" id="cell_$procmux$239_CMP0">
    <s:alias val="$eq"/>
    <circle r="12.5" cx="12.5" cy="12.5" class="cell_$procmux$239_CMP0"/>
    <line x1="7.5" x2="17.5" y1="10" y2="10" class="cell_$procmux$239_CMP0"/>
    <line x1="7.5" x2="17.5" y1="15" y2="15" class="cell_$procmux$239_CMP0"/>
    <g s:x="3" s:y="5" s:pid="A"/>
    <g s:x="3" s:y="20" s:pid="B"/>
    <g s:x="25" s:y="12.5" s:pid="Y"/>
  </g>
  <g s:type="eq" transform="translate(922.3333333333334,824.5)" s:width="25" s:height="25" id="cell_$procmux$240_CMP0">
    <s:alias val="$eq"/>
    <circle r="12.5" cx="12.5" cy="12.5" class="cell_$procmux$240_CMP0"/>
    <line x1="7.5" x2="17.5" y1="10" y2="10" class="cell_$procmux$240_CMP0"/>
    <line x1="7.5" x2="17.5" y1="15" y2="15" class="cell_$procmux$240_CMP0"/>
    <g s:x="3" s:y="5" s:pid="A"/>
    <g s:x="3" s:y="20" s:pid="B"/>
    <g s:x="25" s:y="12.5" s:pid="Y"/>
  </g>
  <g s:type="eq" transform="translate(922.3333333333334,884.5)" s:width="25" s:height="25" id="cell_$procmux$241_CMP0">
    <s:alias val="$eq"/>
    <circle r="12.5" cx="12.5" cy="12.5" class="cell_$procmux$241_CMP0"/>
    <line x1="7.5" x2="17.5" y1="10" y2="10" class="cell_$procmux$241_CMP0"/>
    <line x1="7.5" x2="17.5" y1="15" y2="15" class="cell_$procmux$241_CMP0"/>
    <g s:x="3" s:y="5" s:pid="A"/>
    <g s:x="3" s:y="20" s:pid="B"/>
    <g s:x="25" s:y="12.5" s:pid="Y"/>
  </g>
  <g s:type="mux" transform="translate(332.6666666666667,521)" s:width="20" s:height="40" id="cell_$procmux$243">
    <s:alias val="$pmux"/>
    <s:alias val="$mux"/>
    <s:alias val="$_MUX_"/>
    <path d="M0,0 L20,10 L20,30 L0,40 Z" class="cell_$procmux$243"/>
    <g s:x="0" s:y="10" s:pid="A"/>
    <g s:x="0" s:y="30" s:pid="B"/>
    <g s:x="10" s:y="35" s:pid="S"/>
    <g s:x="20" s:y="20" s:pid="Y"/>
  </g>
  <g s:type="eq" transform="translate(128,641)" s:width="25" s:height="25" id="cell_$procmux$244_CMP0">
    <s:alias val="$eq"/>
    <circle r="12.5" cx="12.5" cy="12.5" class="cell_$procmux$244_CMP0"/>
    <line x1="7.5" x2="17.5" y1="10" y2="10" class="cell_$procmux$244_CMP0"/>
    <line x1="7.5" x2="17.5" y1="15" y2="15" class="cell_$procmux$244_CMP0"/>
    <g s:x="3" s:y="5" s:pid="A"/>
    <g s:x="3" s:y="20" s:pid="B"/>
    <g s:x="25" s:y="12.5" s:pid="Y"/>
  </g>
  <g s:type="eq" transform="translate(128,706)" s:width="25" s:height="25" id="cell_$procmux$245_CMP0">
    <s:alias val="$eq"/>
    <circle r="12.5" cx="12.5" cy="12.5" class="cell_$procmux$245_CMP0"/>
    <line x1="7.5" x2="17.5" y1="10" y2="10" class="cell_$procmux$245_CMP0"/>
    <line x1="7.5" x2="17.5" y1="15" y2="15" class="cell_$procmux$245_CMP0"/>
    <g s:x="3" s:y="5" s:pid="A"/>
    <g s:x="3" s:y="20" s:pid="B"/>
    <g s:x="25" s:y="12.5" s:pid="Y"/>
  </g>
  <g s:type="generic" transform="translate(482,531)" s:width="30" s:height="40" id="cell_$reduce_or$OpenLane/src/femto.v:60$2">
    <text x="15" y="-4" class="nodelabel cell_$reduce_or$OpenLane/src/femto.v:60$2" s:attribute="ref">$reduce_or</text>
    <rect width="30" height="20" s:generic="body" class="cell_$reduce_or$OpenLane/src/femto.v:60$2"/>
    <g transform="translate(0,10)" s:x="0" s:y="10" s:pid="in0" id="port_$reduce_or$OpenLane/src/femto.v:60$2~A">
      <text x="-3" y="-4" class="inputPortLabel cell_$reduce_or$OpenLane/src/femto.v:60$2">A</text>
    </g>
    <g transform="translate(30,10)" s:x="30" s:y="10" s:pid="out0" id="port_$reduce_or$OpenLane/src/femto.v:60$2~Y">
      <text x="5" y="-4" style="fill:#000; stroke:none" class="cell_$reduce_or$OpenLane/src/femto.v:60$2">Y</text>
    </g>
  </g>
  <g s:type="generic" transform="translate(329,318)" s:width="30" s:height="40" id="cell_CPU">
    <text x="15" y="-4" class="nodelabel cell_CPU" s:attribute="ref">FemtoRV32</text>
    <rect width="30" height="100" s:generic="body" class="cell_CPU"/>
    <g transform="translate(0,10)" s:x="0" s:y="10" s:pid="in0" id="port_CPU~clk">
      <text x="-3" y="-4" class="inputPortLabel cell_CPU">clk</text>
    </g>
    <g transform="translate(0,30)" s:x="0" s:y="10" s:pid="in0" id="port_CPU~mem_rbusy">
      <text x="-3" y="-4" class="inputPortLabel cell_CPU">mem_rbusy</text>
    </g>
    <g transform="translate(0,50)" s:x="0" s:y="10" s:pid="in0" id="port_CPU~mem_rdata">
      <text x="-3" y="-4" class="inputPortLabel cell_CPU">mem_rdata</text>
    </g>
    <g transform="translate(0,70)" s:x="0" s:y="10" s:pid="in0" id="port_CPU~mem_wbusy">
      <text x="-3" y="-4" class="inputPortLabel cell_CPU">mem_wbusy</text>
    </g>
    <g transform="translate(0,90)" s:x="0" s:y="10" s:pid="in0" id="port_CPU~reset">
      <text x="-3" y="-4" class="inputPortLabel cell_CPU">reset</text>
    </g>
    <g transform="translate(30,10)" s:x="30" s:y="10" s:pid="out0" id="port_CPU~mem_addr">
      <text x="5" y="-4" style="fill:#000; stroke:none" class="cell_CPU">mem_addr</text>
    </g>
    <g transform="translate(30,30)" s:x="30" s:y="10" s:pid="out0" id="port_CPU~mem_rstrb">
      <text x="5" y="-4" style="fill:#000; stroke:none" class="cell_CPU">mem_rstrb</text>
    </g>
    <g transform="translate(30,50)" s:x="30" s:y="10" s:pid="out0" id="port_CPU~mem_wdata">
      <text x="5" y="-4" style="fill:#000; stroke:none" class="cell_CPU">mem_wdata</text>
    </g>
    <g transform="translate(30,70)" s:x="30" s:y="10" s:pid="out0" id="port_CPU~mem_wmask">
      <text x="5" y="-4" style="fill:#000; stroke:none" class="cell_CPU">mem_wmask</text>
    </g>
  </g>
  <g s:type="generic" transform="translate(923,33)" s:width="30" s:height="40" id="cell_mapped_spi_flash">
    <text x="15" y="-4" class="nodelabel cell_mapped_spi_flash" s:attribute="ref">MappedSPIFlash</text>
    <rect width="30" height="100" s:generic="body" class="cell_mapped_spi_flash"/>
    <g transform="translate(0,10)" s:x="0" s:y="10" s:pid="in0" id="port_mapped_spi_flash~MISO">
      <text x="-3" y="-4" class="inputPortLabel cell_mapped_spi_flash">MISO</text>
    </g>
    <g transform="translate(0,30)" s:x="0" s:y="10" s:pid="in0" id="port_mapped_spi_flash~clk">
      <text x="-3" y="-4" class="inputPortLabel cell_mapped_spi_flash">clk</text>
    </g>
    <g transform="translate(0,50)" s:x="0" s:y="10" s:pid="in0" id="port_mapped_spi_flash~reset">
      <text x="-3" y="-4" class="inputPortLabel cell_mapped_spi_flash">reset</text>
    </g>
    <g transform="translate(0,70)" s:x="0" s:y="10" s:pid="in0" id="port_mapped_spi_flash~rstrb">
      <text x="-3" y="-4" class="inputPortLabel cell_mapped_spi_flash">rstrb</text>
    </g>
    <g transform="translate(0,90)" s:x="0" s:y="10" s:pid="in0" id="port_mapped_spi_flash~word_address">
      <text x="-3" y="-4" class="inputPortLabel cell_mapped_spi_flash">word_address</text>
    </g>
    <g transform="translate(30,10)" s:x="30" s:y="10" s:pid="out0" id="port_mapped_spi_flash~CLK">
      <text x="5" y="-4" style="fill:#000; stroke:none" class="cell_mapped_spi_flash">CLK</text>
    </g>
    <g transform="translate(30,30)" s:x="30" s:y="10" s:pid="out0" id="port_mapped_spi_flash~CS_N">
      <text x="5" y="-4" style="fill:#000; stroke:none" class="cell_mapped_spi_flash">CS_N</text>
    </g>
    <g transform="translate(30,50)" s:x="30" s:y="10" s:pid="out0" id="port_mapped_spi_flash~MOSI">
      <text x="5" y="-4" style="fill:#000; stroke:none" class="cell_mapped_spi_flash">MOSI</text>
    </g>
    <g transform="translate(30,70)" s:x="30" s:y="10" s:pid="out0" id="port_mapped_spi_flash~rbusy">
      <text x="5" y="-4" style="fill:#000; stroke:none" class="cell_mapped_spi_flash">rbusy</text>
    </g>
    <g transform="translate(30,90)" s:x="30" s:y="10" s:pid="out0" id="port_mapped_spi_flash~rdata">
      <text x="5" y="-4" style="fill:#000; stroke:none" class="cell_mapped_spi_flash">rdata</text>
    </g>
  </g>
  <g s:type="generic" transform="translate(923,217)" s:width="30" s:height="40" id="cell_mapped_spi_ram">
    <text x="15" y="-4" class="nodelabel cell_mapped_spi_ram" s:attribute="ref">MappedSPIRAM</text>
    <rect width="30" height="140" s:generic="body" class="cell_mapped_spi_ram"/>
    <g transform="translate(0,10)" s:x="0" s:y="10" s:pid="in0" id="port_mapped_spi_ram~MISO">
      <text x="-3" y="-4" class="inputPortLabel cell_mapped_spi_ram">MISO</text>
    </g>
    <g transform="translate(0,30)" s:x="0" s:y="10" s:pid="in0" id="port_mapped_spi_ram~clk">
      <text x="-3" y="-4" class="inputPortLabel cell_mapped_spi_ram">clk</text>
    </g>
    <g transform="translate(0,50)" s:x="0" s:y="10" s:pid="in0" id="port_mapped_spi_ram~rd">
      <text x="-3" y="-4" class="inputPortLabel cell_mapped_spi_ram">rd</text>
    </g>
    <g transform="translate(0,70)" s:x="0" s:y="10" s:pid="in0" id="port_mapped_spi_ram~reset">
      <text x="-3" y="-4" class="inputPortLabel cell_mapped_spi_ram">reset</text>
    </g>
    <g transform="translate(0,90)" s:x="0" s:y="10" s:pid="in0" id="port_mapped_spi_ram~wdata">
      <text x="-3" y="-4" class="inputPortLabel cell_mapped_spi_ram">wdata</text>
    </g>
    <g transform="translate(0,110)" s:x="0" s:y="10" s:pid="in0" id="port_mapped_spi_ram~word_address">
      <text x="-3" y="-4" class="inputPortLabel cell_mapped_spi_ram">word_address</text>
    </g>
    <g transform="translate(0,130)" s:x="0" s:y="10" s:pid="in0" id="port_mapped_spi_ram~wr">
      <text x="-3" y="-4" class="inputPortLabel cell_mapped_spi_ram">wr</text>
    </g>
    <g transform="translate(30,10)" s:x="30" s:y="10" s:pid="out0" id="port_mapped_spi_ram~CLK">
      <text x="5" y="-4" style="fill:#000; stroke:none" class="cell_mapped_spi_ram">CLK</text>
    </g>
    <g transform="translate(30,30)" s:x="30" s:y="10" s:pid="out0" id="port_mapped_spi_ram~CS_N">
      <text x="5" y="-4" style="fill:#000; stroke:none" class="cell_mapped_spi_ram">CS_N</text>
    </g>
    <g transform="translate(30,50)" s:x="30" s:y="10" s:pid="out0" id="port_mapped_spi_ram~MOSI">
      <text x="5" y="-4" style="fill:#000; stroke:none" class="cell_mapped_spi_ram">MOSI</text>
    </g>
    <g transform="translate(30,70)" s:x="30" s:y="10" s:pid="out0" id="port_mapped_spi_ram~rbusy">
      <text x="5" y="-4" style="fill:#000; stroke:none" class="cell_mapped_spi_ram">rbusy</text>
    </g>
    <g transform="translate(30,90)" s:x="30" s:y="10" s:pid="out0" id="port_mapped_spi_ram~rdata">
      <text x="5" y="-4" style="fill:#000; stroke:none" class="cell_mapped_spi_ram">rdata</text>
    </g>
    <g transform="translate(30,110)" s:x="30" s:y="10" s:pid="out0" id="port_mapped_spi_ram~wbusy">
      <text x="5" y="-4" style="fill:#000; stroke:none" class="cell_mapped_spi_ram">wbusy</text>
    </g>
  </g>
  <g s:type="generic" transform="translate(920.9,523.5)" s:width="30" s:height="40" id="cell_per_uart">
    <text x="15" y="-4" class="nodelabel cell_per_uart" s:attribute="ref">$paramod$98ebefd4f3ce78b73da447c42dad1d2cc3e300e6\peripheral_uart</text>
    <rect width="30" height="140" s:generic="body" class="cell_per_uart"/>
    <g transform="translate(0,10)" s:x="0" s:y="10" s:pid="in0" id="port_per_uart~addr">
      <text x="-3" y="-4" class="inputPortLabel cell_per_uart">addr</text>
    </g>
    <g transform="translate(0,30)" s:x="0" s:y="10" s:pid="in0" id="port_per_uart~clk">
      <text x="-3" y="-4" class="inputPortLabel cell_per_uart">clk</text>
    </g>
    <g transform="translate(0,50)" s:x="0" s:y="10" s:pid="in0" id="port_per_uart~cs">
      <text x="-3" y="-4" class="inputPortLabel cell_per_uart">cs</text>
    </g>
    <g transform="translate(0,70)" s:x="0" s:y="10" s:pid="in0" id="port_per_uart~d_in">
      <text x="-3" y="-4" class="inputPortLabel cell_per_uart">d_in</text>
    </g>
    <g transform="translate(0,90)" s:x="0" s:y="10" s:pid="in0" id="port_per_uart~rst">
      <text x="-3" y="-4" class="inputPortLabel cell_per_uart">rst</text>
    </g>
    <g transform="translate(0,110)" s:x="0" s:y="10" s:pid="in0" id="port_per_uart~uart_rx">
      <text x="-3" y="-4" class="inputPortLabel cell_per_uart">uart_rx</text>
    </g>
    <g transform="translate(0,130)" s:x="0" s:y="10" s:pid="in0" id="port_per_uart~wr">
      <text x="-3" y="-4" class="inputPortLabel cell_per_uart">wr</text>
    </g>
    <g transform="translate(30,10)" s:x="30" s:y="10" s:pid="out0" id="port_per_uart~d_out">
      <text x="5" y="-4" style="fill:#000; stroke:none" class="cell_per_uart">d_out</text>
    </g>
    <g transform="translate(30,30)" s:x="30" s:y="10" s:pid="out0" id="port_per_uart~ledout">
      <text x="5" y="-4" style="fill:#000; stroke:none" class="cell_per_uart">ledout</text>
    </g>
    <g transform="translate(30,50)" s:x="30" s:y="10" s:pid="out0" id="port_per_uart~uart_tx">
      <text x="5" y="-4" style="fill:#000; stroke:none" class="cell_per_uart">uart_tx</text>
    </g>
  </g>
  <g s:type="inputExt" transform="translate(188,212.5)" s:width="30" s:height="20" id="cell_clk">
    <text x="15" y="-4" class="nodelabel cell_clk" s:attribute="ref">clk</text>
    <s:alias val="$_inputExt_"/>
    <path d="M0,0 L0,20 L15,20 L30,10 L15,0 Z" class="cell_clk"/>
    <g s:x="28" s:y="10" s:pid="Y"/>
  </g>
  <g s:type="inputExt" transform="translate(188,277.5)" s:width="30" s:height="20" id="cell_resetn">
    <text x="15" y="-4" class="nodelabel cell_resetn" s:attribute="ref">resetn</text>
    <s:alias val="$_inputExt_"/>
    <path d="M0,0 L0,20 L15,20 L30,10 L15,0 Z" class="cell_resetn"/>
    <g s:x="28" s:y="10" s:pid="Y"/>
  </g>
  <g s:type="outputExt" transform="translate(1165,163.5)" s:width="30" s:height="20" id="cell_spi_mosi">
    <text x="15" y="-4" class="nodelabel cell_spi_mosi" s:attribute="ref">spi_mosi</text>
    <s:alias val="$_outputExt_"/>
    <path d="M30,0 L30,20 L15,20 L0,10 L15,0 Z" class="cell_spi_mosi"/>
    <g s:x="0" s:y="10" s:pid="A"/>
  </g>
  <g s:type="inputExt" transform="translate(738,33.5)" s:width="30" s:height="20" id="cell_spi_miso">
    <text x="15" y="-4" class="nodelabel cell_spi_miso" s:attribute="ref">spi_miso</text>
    <s:alias val="$_inputExt_"/>
    <path d="M0,0 L0,20 L15,20 L30,10 L15,0 Z" class="cell_spi_miso"/>
    <g s:x="28" s:y="10" s:pid="Y"/>
  </g>
  <g s:type="outputExt" transform="translate(1165,98.5)" s:width="30" s:height="20" id="cell_spi_cs_n">
    <text x="15" y="-4" class="nodelabel cell_spi_cs_n" s:attribute="ref">spi_cs_n</text>
    <s:alias val="$_outputExt_"/>
    <path d="M30,0 L30,20 L15,20 L0,10 L15,0 Z" class="cell_spi_cs_n"/>
    <g s:x="0" s:y="10" s:pid="A"/>
  </g>
  <g s:type="outputExt" transform="translate(1165,33.5)" s:width="30" s:height="20" id="cell_spi_clk">
    <text x="15" y="-4" class="nodelabel cell_spi_clk" s:attribute="ref">spi_clk</text>
    <s:alias val="$_outputExt_"/>
    <path d="M30,0 L30,20 L15,20 L0,10 L15,0 Z" class="cell_spi_clk"/>
    <g s:x="0" s:y="10" s:pid="A"/>
  </g>
  <g s:type="outputExt" transform="translate(1165,288.5)" s:width="30" s:height="20" id="cell_spi_clk_ram">
    <text x="15" y="-4" class="nodelabel cell_spi_clk_ram" s:attribute="ref">spi_clk_ram</text>
    <s:alias val="$_outputExt_"/>
    <path d="M30,0 L30,20 L15,20 L0,10 L15,0 Z" class="cell_spi_clk_ram"/>
    <g s:x="0" s:y="10" s:pid="A"/>
  </g>
  <g s:type="outputExt" transform="translate(1165,353.5)" s:width="30" s:height="20" id="cell_spi_cs_n_ram">
    <text x="15" y="-4" class="nodelabel cell_spi_cs_n_ram" s:attribute="ref">spi_cs_n_ram</text>
    <s:alias val="$_outputExt_"/>
    <path d="M30,0 L30,20 L15,20 L0,10 L15,0 Z" class="cell_spi_cs_n_ram"/>
    <g s:x="0" s:y="10" s:pid="A"/>
  </g>
  <g s:type="inputExt" transform="translate(738,192.5)" s:width="30" s:height="20" id="cell_spi_miso_ram">
    <text x="15" y="-4" class="nodelabel cell_spi_miso_ram" s:attribute="ref">spi_miso_ram</text>
    <s:alias val="$_inputExt_"/>
    <path d="M0,0 L0,20 L15,20 L30,10 L15,0 Z" class="cell_spi_miso_ram"/>
    <g s:x="28" s:y="10" s:pid="Y"/>
  </g>
  <g s:type="outputExt" transform="translate(1165,418.5)" s:width="30" s:height="20" id="cell_spi_mosi_ram">
    <text x="15" y="-4" class="nodelabel cell_spi_mosi_ram" s:attribute="ref">spi_mosi_ram</text>
    <s:alias val="$_outputExt_"/>
    <path d="M30,0 L30,20 L15,20 L0,10 L15,0 Z" class="cell_spi_mosi_ram"/>
    <g s:x="0" s:y="10" s:pid="A"/>
  </g>
  <g s:type="outputExt" transform="translate(1165,544)" s:width="30" s:height="20" id="cell_LEDS">
    <text x="15" y="-4" class="nodelabel cell_LEDS" s:attribute="ref">LEDS</text>
    <s:alias val="$_outputExt_"/>
    <path d="M30,0 L30,20 L15,20 L0,10 L15,0 Z" class="cell_LEDS"/>
    <g s:x="0" s:y="10" s:pid="A"/>
  </g>
  <g s:type="inputExt" transform="translate(738,728.5)" s:width="30" s:height="20" id="cell_RXD">
    <text x="15" y="-4" class="nodelabel cell_RXD" s:attribute="ref">RXD</text>
    <s:alias val="$_inputExt_"/>
    <path d="M0,0 L0,20 L15,20 L30,10 L15,0 Z" class="cell_RXD"/>
    <g s:x="28" s:y="10" s:pid="Y"/>
  </g>
  <g s:type="outputExt" transform="translate(1165,866.5)" s:width="30" s:height="20" id="cell_TXD">
    <text x="15" y="-4" class="nodelabel cell_TXD" s:attribute="ref">TXD</text>
    <s:alias val="$_outputExt_"/>
    <path d="M30,0 L30,20 L15,20 L0,10 L15,0 Z" class="cell_TXD"/>
    <g s:x="0" s:y="10" s:pid="A"/>
  </g>
  <g s:type="constant" transform="translate(1099,599)" s:width="30" s:height="20" id="cell_00000000000000000000000000000000">
    <text x="15" y="-4" class="nodelabel cell_00000000000000000000000000000000" s:attribute="ref">0x0</text>
    <s:alias val="$_constant_"/>
    <rect width="30" height="20" class="cell_00000000000000000000000000000000"/>
    <g s:x="30" s:y="10" s:pid="Y"/>
  </g>
  <g s:type="constant" transform="translate(32,651)" s:width="30" s:height="20" id="cell_1">
    <text x="15" y="-4" class="nodelabel cell_1" s:attribute="ref">1</text>
    <s:alias val="$_constant_"/>
    <rect width="30" height="20" class="cell_1"/>
    <g s:x="30" s:y="10" s:pid="Y"/>
  </g>
  <g s:type="constant" transform="translate(738,850.5)" s:width="30" s:height="20" id="cell_100000">
    <text x="15" y="-4" class="nodelabel cell_100000" s:attribute="ref">0x20</text>
    <s:alias val="$_constant_"/>
    <rect width="30" height="20" class="cell_100000"/>
    <g s:x="30" s:y="10" s:pid="Y"/>
  </g>
  <g s:type="constant" transform="translate(32,716)" s:width="30" s:height="20" id="cell_1000000">
    <text x="15" y="-4" class="nodelabel cell_1000000" s:attribute="ref">0x40</text>
    <s:alias val="$_constant_"/>
    <rect width="30" height="20" class="cell_1000000"/>
    <g s:x="30" s:y="10" s:pid="Y"/>
  </g>
  <g s:type="constant" transform="translate(188,521)" s:width="30" s:height="20" id="cell_0000001">
    <text x="15" y="-4" class="nodelabel cell_0000001" s:attribute="ref">0x1</text>
    <s:alias val="$_constant_"/>
    <rect width="30" height="20" class="cell_0000001"/>
    <g s:x="30" s:y="10" s:pid="Y"/>
  </g>
  <g s:type="constant" transform="translate(188,586)" s:width="30" s:height="20" id="cell_01000001000000">
    <text x="15" y="-4" class="nodelabel cell_01000001000000" s:attribute="ref">0x1040</text>
    <s:alias val="$_constant_"/>
    <rect width="30" height="20" class="cell_01000001000000"/>
    <g s:x="30" s:y="10" s:pid="Y"/>
  </g>
  <g s:type="join" transform="translate(1124,654)" s:width="4" s:height="40" id="cell_$join$,26,27,28,29,30,31,32,33,34,35,36,37,38,39,40,41,42,43,44,45,46,47,48,49,50,51,52,53,54,55,56,57,58,59,60,61,62,63,64,65,66,67,68,69,70,71,72,73,74,75,76,77,78,79,80,81,82,83,84,85,86,87,88,89,90,91,92,93,94,95,96,97,98,99,100,101,102,103,104,105,106,107,108,109,110,111,112,113,114,115,116,117,118,119,120,121,">
    <rect width="5" height="60" class="splitjoinBody" s:generic="body"/>
    <s:alias val="$_join_"/>
    <g s:x="5" s:y="20" s:pid="out"/>
    <g transform="translate(0,10)" s:x="0" s:y="10" s:pid="in0">
      <text x="-3" y="-4" class="inputPortLabel">0:31</text>
    </g>
    <g transform="translate(0,30)" s:x="0" s:y="10" s:pid="in0">
      <text x="-3" y="-4" class="inputPortLabel">32:63</text>
    </g>
    <g transform="translate(0,50)" s:x="0" s:y="10" s:pid="in0">
      <text x="-3" y="-4" class="inputPortLabel">64:95</text>
    </g>
  </g>
  <g s:type="join" transform="translate(1118.25,806.5)" s:width="4" s:height="40" id="cell_$join$,122,123,124,">
    <rect width="5" height="60" class="splitjoinBody" s:generic="body"/>
    <s:alias val="$_join_"/>
    <g s:x="5" s:y="20" s:pid="out"/>
    <g transform="translate(0,10)" s:x="0" s:y="10" s:pid="in0">
      <text x="-3" y="-4" class="inputPortLabel">0</text>
    </g>
    <g transform="translate(0,30)" s:x="0" s:y="10" s:pid="in0">
      <text x="-3" y="-4" class="inputPortLabel">1</text>
    </g>
    <g transform="translate(0,50)" s:x="0" s:y="10" s:pid="in0">
      <text x="-3" y="-4" class="inputPortLabel">2</text>
    </g>
  </g>
  <g s:type="join" transform="translate(201,643)" s:width="4" s:height="40" id="cell_$join$,162,163,">
    <rect width="5" height="40" class="splitjoinBody" s:generic="body"/>
    <s:alias val="$_join_"/>
    <g s:x="5" s:y="20" s:pid="out"/>
    <g transform="translate(0,10)" s:x="0" s:y="10" s:pid="in0">
      <text x="-3" y="-4" class="inputPortLabel">0</text>
    </g>
    <g transform="translate(0,30)" s:x="0" s:y="10" s:pid="in0">
      <text x="-3" y="-4" class="inputPortLabel">1</text>
    </g>
  </g>
  <g s:type="split" transform="translate(545.5,298.5)" s:width="5" s:height="40" id="cell_$split$,15,157,158,159,160,161,18,">
    <rect width="5" height="60" class="splitjoinBody" s:generic="body"/>
    <s:alias val="$_split_"/>
    <g s:x="0" s:y="20" s:pid="in"/>
    <g transform="translate(4,10)" s:x="4" s:y="10" s:pid="out0">
      <text x="5" y="-4">0</text>
    </g>
    <g transform="translate(4,30)" s:x="4" s:y="10" s:pid="out0">
      <text x="5" y="-4">6</text>
    </g>
    <g transform="translate(4,50)" s:x="4" s:y="10" s:pid="out0">
      <text x="5" y="-4">5</text>
    </g>
  </g>
  <g s:type="split" transform="translate(32,141)" s:width="5" s:height="40" id="cell_$split$,184,185,186,187,188,189,190,191,192,193,194,195,196,197,198,199,164,165,166,167,168,169,170,171,172,173,174,175,176,177,178,179,">
    <rect width="5" height="60" class="splitjoinBody" s:generic="body"/>
    <s:alias val="$_split_"/>
    <g s:x="0" s:y="20" s:pid="in"/>
    <g transform="translate(4,10)" s:x="4" s:y="10" s:pid="out0">
      <text x="5" y="-4">16:31</text>
    </g>
    <g transform="translate(4,30)" s:x="4" s:y="10" s:pid="out0">
      <text x="5" y="-4">2:21</text>
    </g>
    <g transform="translate(4,50)" s:x="4" s:y="10" s:pid="out0">
      <text x="5" y="-4">0:4</text>
    </g>
  </g>
  <g s:type="split" transform="translate(763,531)" s:width="5" s:height="40" id="cell_$split$,201,202,203,204,205,206,207,208,209,210,211,212,213,214,215,216,217,218,219,220,221,222,223,224,225,226,227,228,229,230,231,232,">
    <rect width="5" height="20" class="splitjoinBody" s:generic="body"/>
    <s:alias val="$_split_"/>
    <g s:x="0" s:y="20" s:pid="in"/>
    <g transform="translate(4,10)" s:x="4" s:y="10" s:pid="out0">
      <text x="5" y="-4">0:7</text>
    </g>
  </g>
  <line x1="550.5" x2="708" y1="309" y2="309" class="net_15"/>
  <line x1="708" x2="708" y1="309" y2="99.5" class="net_15"/>
  <line x1="708" x2="752" y1="99.5" y2="99.5" class="net_15"/>
  <line x1="360" x2="425" y1="348.5" y2="348.5" class="net_16"/>
  <line x1="425" x2="425" y1="348.5" y2="114.5" class="net_16"/>
  <line x1="425" x2="752" y1="114.5" y2="114.5" class="net_16"/>
  <line x1="360" x2="425" y1="348.5" y2="348.5" class="net_16"/>
  <line x1="425" x2="425" y1="348.5" y2="272.5" class="net_16"/>
  <circle cx="425" cy="272.5" r="2" style="fill:#000" class="net_16"/>
  <line x1="425" x2="752" y1="272.5" y2="272.5" class="net_16"/>
  <line x1="550.5" x2="728" y1="329" y2="329" class="net_18"/>
  <line x1="728" x2="728" y1="329" y2="257.5" class="net_18"/>
  <circle cx="728" cy="329" r="2" style="fill:#000" class="net_18"/>
  <line x1="728" x2="752" y1="257.5" y2="257.5" class="net_18"/>
  <line x1="550.5" x2="728" y1="329" y2="329" class="net_18"/>
  <line x1="728" x2="728" y1="329" y2="458" class="net_18"/>
  <line x1="728" x2="752" y1="458" y2="458" class="net_18"/>
  <line x1="513" x2="708" y1="541.5" y2="541.5" class="net_20"/>
  <line x1="708" x2="708" y1="541.5" y2="473" class="net_20"/>
  <circle cx="708" cy="541.5" r="2" style="fill:#000" class="net_20"/>
  <line x1="708" x2="752" y1="473" y2="473" class="net_20"/>
  <line x1="513" x2="708" y1="541.5" y2="541.5" class="net_20"/>
  <line x1="708" x2="708" y1="541.5" y2="758.5" class="net_20"/>
  <line x1="708" x2="840" y1="758.5" y2="758.5" class="net_20"/>
  <line x1="840" x2="840" y1="758.5" y2="654" class="net_20"/>
  <line x1="840" x2="920.9" y1="654" y2="654" class="net_20"/>
  <line x1="216" x2="244" y1="287.5" y2="287.5" class="net_3"/>
  <line x1="244" x2="244" y1="287.5" y2="673.5" class="net_3"/>
  <circle cx="244" cy="287.5" r="2" style="fill:#000" class="net_3"/>
  <line x1="244" x2="759" y1="673.5" y2="673.5" class="net_3"/>
  <line x1="216" x2="244" y1="287.5" y2="287.5" class="net_3"/>
  <line x1="244" x2="244" y1="287.5" y2="408.5" class="net_3"/>
  <circle cx="244" cy="408.5" r="2" style="fill:#000" class="net_3"/>
  <line x1="244" x2="329" y1="408.5" y2="408.5" class="net_3"/>
  <line x1="216" x2="244" y1="287.5" y2="287.5" class="net_3"/>
  <line x1="244" x2="244" y1="287.5" y2="83.5" class="net_3"/>
  <line x1="244" x2="923" y1="83.5" y2="83.5" class="net_3"/>
  <line x1="216" x2="923" y1="287.5" y2="287.5" class="net_3"/>
  <line x1="954" x2="1069" y1="103.5" y2="103.5" class="net_23"/>
  <line x1="1069" x2="1069" y1="103.5" y2="223.5" class="net_23"/>
  <line x1="1069" x2="1168" y1="223.5" y2="223.5" class="net_23"/>
  <line x1="954" x2="1140" y1="287.5" y2="287.5" class="net_24"/>
  <line x1="1140" x2="1140" y1="287.5" y2="238.5" class="net_24"/>
  <line x1="1140" x2="1168" y1="238.5" y2="238.5" class="net_24"/>
  <line x1="1129" x2="1165" y1="609" y2="609" class="net_233,234,235,236,237,238,239,240,241,242,243,244,245,246,247,248,249,250,251,252,253,254,255,256,257,258,259,260,261,262,263,264"/>
  <line x1="1130" x2="1140" y1="674.5" y2="674.5" class="net_26,27,28,29,30,31,32,33,34,35,36,37,38,39,40,41,42,43,44,45,46,47,48,49,50,51,52,53,54,55,56,57,58,59,60,61,62,63,64,65,66,67,68,69,70,71,72,73,74,75,76,77,78,79,80,81,82,83,84,85,86,87,88,89,90,91,92,93,94,95,96,97,98,99,100,101,102,103,104,105,106,107,108,109,110,111,112,113,114,115,116,117,118,119,120,121"/>
  <line x1="1140" x2="1140" y1="674.5" y2="629" class="net_26,27,28,29,30,31,32,33,34,35,36,37,38,39,40,41,42,43,44,45,46,47,48,49,50,51,52,53,54,55,56,57,58,59,60,61,62,63,64,65,66,67,68,69,70,71,72,73,74,75,76,77,78,79,80,81,82,83,84,85,86,87,88,89,90,91,92,93,94,95,96,97,98,99,100,101,102,103,104,105,106,107,108,109,110,111,112,113,114,115,116,117,118,119,120,121"/>
  <line x1="1140" x2="1165" y1="629" y2="629" class="net_26,27,28,29,30,31,32,33,34,35,36,37,38,39,40,41,42,43,44,45,46,47,48,49,50,51,52,53,54,55,56,57,58,59,60,61,62,63,64,65,66,67,68,69,70,71,72,73,74,75,76,77,78,79,80,81,82,83,84,85,86,87,88,89,90,91,92,93,94,95,96,97,98,99,100,101,102,103,104,105,106,107,108,109,110,111,112,113,114,115,116,117,118,119,120,121"/>
  <line x1="1124.25" x2="1175" y1="827" y2="827" class="net_122,123,124"/>
  <line x1="1175" x2="1175" y1="827" y2="634" class="net_122,123,124"/>
  <line x1="352.6666666666667" x2="445" y1="541" y2="541" class="net_15,157,158,159,160,161,18"/>
  <line x1="445" x2="445" y1="541" y2="769.5" class="net_15,157,158,159,160,161,18"/>
  <circle cx="445" cy="541" r="2" style="fill:#000" class="net_15,157,158,159,160,161,18"/>
  <circle cx="445" cy="769.5" r="2" style="fill:#000" class="net_15,157,158,159,160,161,18"/>
  <line x1="445" x2="925.3333333333334" y1="769.5" y2="769.5" class="net_15,157,158,159,160,161,18"/>
  <line x1="352.6666666666667" x2="445" y1="541" y2="541" class="net_15,157,158,159,160,161,18"/>
  <line x1="445" x2="445" y1="541" y2="829.5" class="net_15,157,158,159,160,161,18"/>
  <line x1="445" x2="925.3333333333334" y1="829.5" y2="829.5" class="net_15,157,158,159,160,161,18"/>
  <line x1="352.6666666666667" x2="445" y1="541" y2="541" class="net_15,157,158,159,160,161,18"/>
  <line x1="445" x2="445" y1="541" y2="829.5" class="net_15,157,158,159,160,161,18"/>
  <line x1="445" x2="708" y1="829.5" y2="829.5" class="net_15,157,158,159,160,161,18"/>
  <line x1="708" x2="708" y1="829.5" y2="889.5" class="net_15,157,158,159,160,161,18"/>
  <circle cx="708" cy="829.5" r="2" style="fill:#000" class="net_15,157,158,159,160,161,18"/>
  <line x1="708" x2="925.3333333333334" y1="889.5" y2="889.5" class="net_15,157,158,159,160,161,18"/>
  <line x1="352.6666666666667" x2="445" y1="541" y2="541" class="net_15,157,158,159,160,161,18"/>
  <line x1="445" x2="445" y1="541" y2="319" class="net_15,157,158,159,160,161,18"/>
  <line x1="445" x2="545.5" y1="319" y2="319" class="net_15,157,158,159,160,161,18"/>
  <line x1="62" x2="88" y1="661" y2="661" class="net_265"/>
  <line x1="88" x2="88" y1="661" y2="780.5" class="net_265"/>
  <line x1="88" x2="820" y1="780.5" y2="780.5" class="net_265"/>
  <line x1="820" x2="820" y1="780.5" y2="784.5" class="net_265"/>
  <circle cx="88" cy="661" r="2" style="fill:#000" class="net_265"/>
  <line x1="820" x2="925.3333333333334" y1="784.5" y2="784.5" class="net_265"/>
  <line x1="62" x2="131" y1="661" y2="661" class="net_265"/>
  <line x1="768" x2="820" y1="860.5" y2="860.5" class="net_266,267,268,269,270,271"/>
  <line x1="820" x2="820" y1="860.5" y2="844.5" class="net_266,267,268,269,270,271"/>
  <line x1="820" x2="925.3333333333334" y1="844.5" y2="844.5" class="net_266,267,268,269,270,271"/>
  <line x1="62" x2="78" y1="726" y2="726" class="net_272,273,274,275,276,277,278"/>
  <line x1="78" x2="78" y1="726" y2="900.5" class="net_272,273,274,275,276,277,278"/>
  <line x1="78" x2="820" y1="900.5" y2="900.5" class="net_272,273,274,275,276,277,278"/>
  <line x1="820" x2="820" y1="900.5" y2="904.5" class="net_272,273,274,275,276,277,278"/>
  <circle cx="78" cy="726" r="2" style="fill:#000" class="net_272,273,274,275,276,277,278"/>
  <line x1="820" x2="925.3333333333334" y1="904.5" y2="904.5" class="net_272,273,274,275,276,277,278"/>
  <line x1="62" x2="131" y1="726" y2="726" class="net_272,273,274,275,276,277,278"/>
  <line x1="218" x2="332.6666666666667" y1="531" y2="531" class="net_279,280,281,282,283,284,285"/>
  <line x1="218" x2="254" y1="596" y2="596" class="net_286,287,288,289,290,291,292,293,294,295,296,297,298,299"/>
  <line x1="254" x2="254" y1="596" y2="551" class="net_286,287,288,289,290,291,292,293,294,295,296,297,298,299"/>
  <line x1="254" x2="332.6666666666667" y1="551" y2="551" class="net_286,287,288,289,290,291,292,293,294,295,296,297,298,299"/>
  <line x1="207" x2="342.6666666666667" y1="663.5" y2="663.5" class="net_162,163"/>
  <line x1="342.6666666666667" x2="342.6666666666667" y1="663.5" y2="556" class="net_162,163"/>
  <line x1="37" x2="98" y1="151.5" y2="151.5" class="net_164,165,166,167,168,169,170,171,172,173,174,175,176,177,178,179"/>
  <line x1="98" x2="98" y1="151.5" y2="646" class="net_164,165,166,167,168,169,170,171,172,173,174,175,176,177,178,179"/>
  <circle cx="98" cy="646" r="2" style="fill:#000" class="net_164,165,166,167,168,169,170,171,172,173,174,175,176,177,178,179"/>
  <line x1="98" x2="131" y1="646" y2="646" class="net_164,165,166,167,168,169,170,171,172,173,174,175,176,177,178,179"/>
  <line x1="37" x2="98" y1="151.5" y2="151.5" class="net_164,165,166,167,168,169,170,171,172,173,174,175,176,177,178,179"/>
  <line x1="98" x2="98" y1="151.5" y2="711" class="net_164,165,166,167,168,169,170,171,172,173,174,175,176,177,178,179"/>
  <line x1="98" x2="131" y1="711" y2="711" class="net_164,165,166,167,168,169,170,171,172,173,174,175,176,177,178,179"/>
  <line x1="360" x2="455" y1="388.5" y2="388.5" class="net_180,181,182,183"/>
  <line x1="455" x2="455" y1="388.5" y2="541.5" class="net_180,181,182,183"/>
  <line x1="455" x2="482" y1="541.5" y2="541.5" class="net_180,181,182,183"/>
  <line x1="216" x2="254" y1="222.5" y2="222.5" class="net_2"/>
  <line x1="254" x2="254" y1="222.5" y2="328.5" class="net_2"/>
  <circle cx="254" cy="222.5" r="2" style="fill:#000" class="net_2"/>
  <circle cx="254" cy="328.5" r="2" style="fill:#000" class="net_2"/>
  <line x1="254" x2="329" y1="328.5" y2="328.5" class="net_2"/>
  <line x1="216" x2="254" y1="222.5" y2="222.5" class="net_2"/>
  <line x1="254" x2="254" y1="222.5" y2="63.5" class="net_2"/>
  <line x1="254" x2="923" y1="63.5" y2="63.5" class="net_2"/>
  <line x1="216" x2="820" y1="222.5" y2="222.5" class="net_2"/>
  <line x1="820" x2="820" y1="222.5" y2="247.5" class="net_2"/>
  <line x1="820" x2="923" y1="247.5" y2="247.5" class="net_2"/>
  <line x1="216" x2="254" y1="222.5" y2="222.5" class="net_2"/>
  <line x1="254" x2="254" y1="222.5" y2="510" class="net_2"/>
  <line x1="254" x2="830" y1="510" y2="510" class="net_2"/>
  <line x1="830" x2="830" y1="510" y2="554" class="net_2"/>
  <line x1="830" x2="920.9" y1="554" y2="554" class="net_2"/>
  <line x1="1195" x2="1247" y1="231" y2="231" class="net_25"/>
  <line x1="1247" x2="1247" y1="231" y2="12" class="net_25"/>
  <line x1="1247" x2="234" y1="12" y2="12" class="net_25"/>
  <line x1="234" x2="234" y1="12" y2="348.5" class="net_25"/>
  <line x1="234" x2="329" y1="348.5" y2="348.5" class="net_25"/>
  <line x1="1185" x2="1247" y1="619" y2="619" class="net_125,126,127,128,129,130,131,132,133,134,135,136,137,138,139,140,141,142,143,144,145,146,147,148,149,150,151,152,153,154,155,156"/>
  <line x1="1247" x2="1247" y1="619" y2="919.5" class="net_125,126,127,128,129,130,131,132,133,134,135,136,137,138,139,140,141,142,143,144,145,146,147,148,149,150,151,152,153,154,155,156"/>
  <line x1="1247" x2="234" y1="919.5" y2="919.5" class="net_125,126,127,128,129,130,131,132,133,134,135,136,137,138,139,140,141,142,143,144,145,146,147,148,149,150,151,152,153,154,155,156"/>
  <line x1="234" x2="234" y1="919.5" y2="368.5" class="net_125,126,127,128,129,130,131,132,133,134,135,136,137,138,139,140,141,142,143,144,145,146,147,148,149,150,151,152,153,154,155,156"/>
  <line x1="234" x2="329" y1="368.5" y2="368.5" class="net_125,126,127,128,129,130,131,132,133,134,135,136,137,138,139,140,141,142,143,144,145,146,147,148,149,150,151,152,153,154,155,156"/>
  <line x1="954" x2="1029" y1="327.5" y2="327.5" class="net_200"/>
  <line x1="1029" x2="1029" y1="327.5" y2="488" class="net_200"/>
  <line x1="1029" x2="264" y1="488" y2="488" class="net_200"/>
  <line x1="264" x2="264" y1="488" y2="388.5" class="net_200"/>
  <line x1="264" x2="329" y1="388.5" y2="388.5" class="net_200"/>
  <line x1="766" x2="923" y1="43.5" y2="43.5" class="net_5"/>
  <line x1="782" x2="820" y1="107" y2="107" class="net_17"/>
  <line x1="820" x2="820" y1="107" y2="103.5" class="net_17"/>
  <line x1="820" x2="923" y1="103.5" y2="103.5" class="net_17"/>
  <line x1="37" x2="820" y1="171.5" y2="171.5" class="net_186,187,188,189,190,191,192,193,194,195,196,197,198,199,164,165,166,167,168,169"/>
  <line x1="820" x2="820" y1="171.5" y2="123.5" class="net_186,187,188,189,190,191,192,193,194,195,196,197,198,199,164,165,166,167,168,169"/>
  <line x1="820" x2="923" y1="123.5" y2="123.5" class="net_186,187,188,189,190,191,192,193,194,195,196,197,198,199,164,165,166,167,168,169"/>
  <line x1="37" x2="108" y1="171.5" y2="171.5" class="net_186,187,188,189,190,191,192,193,194,195,196,197,198,199,164,165,166,167,168,169"/>
  <line x1="108" x2="108" y1="171.5" y2="442" class="net_186,187,188,189,190,191,192,193,194,195,196,197,198,199,164,165,166,167,168,169"/>
  <line x1="108" x2="830" y1="442" y2="442" class="net_186,187,188,189,190,191,192,193,194,195,196,197,198,199,164,165,166,167,168,169"/>
  <line x1="830" x2="830" y1="442" y2="327.5" class="net_186,187,188,189,190,191,192,193,194,195,196,197,198,199,164,165,166,167,168,169"/>
  <circle cx="108" cy="171.5" r="2" style="fill:#000" class="net_186,187,188,189,190,191,192,193,194,195,196,197,198,199,164,165,166,167,168,169"/>
  <line x1="830" x2="923" y1="327.5" y2="327.5" class="net_186,187,188,189,190,191,192,193,194,195,196,197,198,199,164,165,166,167,168,169"/>
  <line x1="766" x2="830" y1="202.5" y2="202.5" class="net_10"/>
  <line x1="830" x2="830" y1="202.5" y2="227.5" class="net_10"/>
  <line x1="830" x2="923" y1="227.5" y2="227.5" class="net_10"/>
  <line x1="782" x2="820" y1="265" y2="265" class="net_19"/>
  <line x1="820" x2="820" y1="265" y2="267.5" class="net_19"/>
  <line x1="820" x2="923" y1="267.5" y2="267.5" class="net_19"/>
  <line x1="360" x2="820" y1="368.5" y2="368.5" class="net_201,202,203,204,205,206,207,208,209,210,211,212,213,214,215,216,217,218,219,220,221,222,223,224,225,226,227,228,229,230,231,232"/>
  <line x1="820" x2="820" y1="368.5" y2="307.5" class="net_201,202,203,204,205,206,207,208,209,210,211,212,213,214,215,216,217,218,219,220,221,222,223,224,225,226,227,228,229,230,231,232"/>
  <line x1="820" x2="923" y1="307.5" y2="307.5" class="net_201,202,203,204,205,206,207,208,209,210,211,212,213,214,215,216,217,218,219,220,221,222,223,224,225,226,227,228,229,230,231,232"/>
  <line x1="360" x2="465" y1="368.5" y2="368.5" class="net_201,202,203,204,205,206,207,208,209,210,211,212,213,214,215,216,217,218,219,220,221,222,223,224,225,226,227,228,229,230,231,232"/>
  <line x1="465" x2="465" y1="368.5" y2="564" class="net_201,202,203,204,205,206,207,208,209,210,211,212,213,214,215,216,217,218,219,220,221,222,223,224,225,226,227,228,229,230,231,232"/>
  <line x1="465" x2="763.5" y1="564" y2="564" class="net_201,202,203,204,205,206,207,208,209,210,211,212,213,214,215,216,217,218,219,220,221,222,223,224,225,226,227,228,229,230,231,232"/>
  <circle cx="465" cy="368.5" r="2" style="fill:#000" class="net_201,202,203,204,205,206,207,208,209,210,211,212,213,214,215,216,217,218,219,220,221,222,223,224,225,226,227,228,229,230,231,232"/>
  <line x1="763.5" x2="763.5" y1="564" y2="552" class="net_201,202,203,204,205,206,207,208,209,210,211,212,213,214,215,216,217,218,219,220,221,222,223,224,225,226,227,228,229,230,231,232"/>
  <line x1="782" x2="840" y1="465.5" y2="465.5" class="net_21"/>
  <line x1="840" x2="840" y1="465.5" y2="347.5" class="net_21"/>
  <line x1="840" x2="923" y1="347.5" y2="347.5" class="net_21"/>
  <line x1="37" x2="78" y1="191.5" y2="191.5" class="net_184,185,186,187,188"/>
  <line x1="78" x2="78" y1="191.5" y2="499" class="net_184,185,186,187,188"/>
  <line x1="78" x2="840" y1="499" y2="499" class="net_184,185,186,187,188"/>
  <line x1="840" x2="840" y1="499" y2="534" class="net_184,185,186,187,188"/>
  <line x1="840" x2="920.9" y1="534" y2="534" class="net_184,185,186,187,188"/>
  <line x1="550.5" x2="718" y1="349" y2="349" class="net_161"/>
  <line x1="718" x2="718" y1="349" y2="574" class="net_161"/>
  <line x1="718" x2="920.9" y1="574" y2="574" class="net_161"/>
  <line x1="768" x2="820" y1="541.5" y2="541.5" class="net_201,202,203,204,205,206,207,208"/>
  <line x1="820" x2="820" y1="541.5" y2="594" class="net_201,202,203,204,205,206,207,208"/>
  <line x1="820" x2="920.9" y1="594" y2="594" class="net_201,202,203,204,205,206,207,208"/>
  <line x1="784" x2="820" y1="673.5" y2="673.5" class="net_22"/>
  <line x1="820" x2="820" y1="673.5" y2="614" class="net_22"/>
  <line x1="820" x2="920.9" y1="614" y2="614" class="net_22"/>
  <line x1="766" x2="830" y1="738.5" y2="738.5" class="net_13"/>
  <line x1="830" x2="830" y1="738.5" y2="634" class="net_13"/>
  <line x1="830" x2="920.9" y1="634" y2="634" class="net_13"/>
  <line x1="954" x2="1079" y1="83.5" y2="83.5" class="net_4"/>
  <line x1="1079" x2="1079" y1="83.5" y2="173.5" class="net_4"/>
  <line x1="1079" x2="1165" y1="173.5" y2="173.5" class="net_4"/>
  <line x1="954" x2="1089" y1="63.5" y2="63.5" class="net_6"/>
  <line x1="1089" x2="1089" y1="63.5" y2="108.5" class="net_6"/>
  <line x1="1089" x2="1165" y1="108.5" y2="108.5" class="net_6"/>
  <line x1="954" x2="1165" y1="43.5" y2="43.5" class="net_7"/>
  <line x1="954" x2="1089" y1="227.5" y2="227.5" class="net_8"/>
  <line x1="1089" x2="1089" y1="227.5" y2="298.5" class="net_8"/>
  <line x1="1089" x2="1165" y1="298.5" y2="298.5" class="net_8"/>
  <line x1="954" x2="1079" y1="247.5" y2="247.5" class="net_9"/>
  <line x1="1079" x2="1079" y1="247.5" y2="363.5" class="net_9"/>
  <line x1="1079" x2="1165" y1="363.5" y2="363.5" class="net_9"/>
  <line x1="954" x2="1069" y1="267.5" y2="267.5" class="net_11"/>
  <line x1="1069" x2="1069" y1="267.5" y2="428.5" class="net_11"/>
  <line x1="1069" x2="1165" y1="428.5" y2="428.5" class="net_11"/>
  <line x1="951.9" x2="1165" y1="554" y2="554" class="net_12"/>
  <line x1="951.9" x2="1029" y1="574" y2="574" class="net_14"/>
  <line x1="1029" x2="1029" y1="574" y2="876.5" class="net_14"/>
  <line x1="1029" x2="1165" y1="876.5" y2="876.5" class="net_14"/>
  <line x1="954" x2="1059" y1="123.5" y2="123.5" class="net_26,27,28,29,30,31,32,33,34,35,36,37,38,39,40,41,42,43,44,45,46,47,48,49,50,51,52,53,54,55,56,57"/>
  <line x1="1059" x2="1059" y1="123.5" y2="664.5" class="net_26,27,28,29,30,31,32,33,34,35,36,37,38,39,40,41,42,43,44,45,46,47,48,49,50,51,52,53,54,55,56,57"/>
  <line x1="1059" x2="1124" y1="664.5" y2="664.5" class="net_26,27,28,29,30,31,32,33,34,35,36,37,38,39,40,41,42,43,44,45,46,47,48,49,50,51,52,53,54,55,56,57"/>
  <line x1="951.9" x2="1039" y1="534" y2="534" class="net_58,59,60,61,62,63,64,65,66,67,68,69,70,71,72,73,74,75,76,77,78,79,80,81,82,83,84,85,86,87,88,89"/>
  <line x1="1039" x2="1039" y1="534" y2="684.5" class="net_58,59,60,61,62,63,64,65,66,67,68,69,70,71,72,73,74,75,76,77,78,79,80,81,82,83,84,85,86,87,88,89"/>
  <line x1="1039" x2="1124" y1="684.5" y2="684.5" class="net_58,59,60,61,62,63,64,65,66,67,68,69,70,71,72,73,74,75,76,77,78,79,80,81,82,83,84,85,86,87,88,89"/>
  <line x1="954" x2="1049" y1="307.5" y2="307.5" class="net_90,91,92,93,94,95,96,97,98,99,100,101,102,103,104,105,106,107,108,109,110,111,112,113,114,115,116,117,118,119,120,121"/>
  <line x1="1049" x2="1049" y1="307.5" y2="704.5" class="net_90,91,92,93,94,95,96,97,98,99,100,101,102,103,104,105,106,107,108,109,110,111,112,113,114,115,116,117,118,119,120,121"/>
  <line x1="1049" x2="1124" y1="704.5" y2="704.5" class="net_90,91,92,93,94,95,96,97,98,99,100,101,102,103,104,105,106,107,108,109,110,111,112,113,114,115,116,117,118,119,120,121"/>
  <line x1="947.3333333333334" x2="1039" y1="777" y2="777" class="net_122"/>
  <line x1="1039" x2="1039" y1="777" y2="817" class="net_122"/>
  <line x1="1039" x2="1118.25" y1="817" y2="817" class="net_122"/>
  <line x1="947.3333333333334" x2="1118.25" y1="837" y2="837" class="net_123"/>
  <line x1="947.3333333333334" x2="1039" y1="897" y2="897" class="net_124"/>
  <line x1="1039" x2="1039" y1="897" y2="857" class="net_124"/>
  <line x1="1039" x2="1118.25" y1="857" y2="857" class="net_124"/>
  <line x1="153" x2="201" y1="653.5" y2="653.5" class="net_162"/>
  <line x1="153" x2="163" y1="718.5" y2="718.5" class="net_163"/>
  <line x1="163" x2="163" y1="718.5" y2="673.5" class="net_163"/>
  <line x1="163" x2="201" y1="673.5" y2="673.5" class="net_163"/>
  <line x1="360" x2="435" y1="328.5" y2="328.5" class="net_184,185,186,187,188,189,190,191,192,193,194,195,196,197,198,199,164,165,166,167,168,169,170,171,172,173,174,175,176,177,178,179"/>
  <line x1="435" x2="435" y1="328.5" y2="431" class="net_184,185,186,187,188,189,190,191,192,193,194,195,196,197,198,199,164,165,166,167,168,169,170,171,172,173,174,175,176,177,178,179"/>
  <line x1="435" x2="118" y1="431" y2="431" class="net_184,185,186,187,188,189,190,191,192,193,194,195,196,197,198,199,164,165,166,167,168,169,170,171,172,173,174,175,176,177,178,179"/>
  <line x1="118" x2="118" y1="431" y2="131" class="net_184,185,186,187,188,189,190,191,192,193,194,195,196,197,198,199,164,165,166,167,168,169,170,171,172,173,174,175,176,177,178,179"/>
  <line x1="118" x2="12" y1="131" y2="131" class="net_184,185,186,187,188,189,190,191,192,193,194,195,196,197,198,199,164,165,166,167,168,169,170,171,172,173,174,175,176,177,178,179"/>
  <line x1="12" x2="12" y1="131" y2="161.5" class="net_184,185,186,187,188,189,190,191,192,193,194,195,196,197,198,199,164,165,166,167,168,169,170,171,172,173,174,175,176,177,178,179"/>
  <line x1="12" x2="32" y1="161.5" y2="161.5" class="net_184,185,186,187,188,189,190,191,192,193,194,195,196,197,198,199,164,165,166,167,168,169,170,171,172,173,174,175,176,177,178,179"/>
</svg>
